HIERARCHY
ROOT Hips
{
	OFFSET	0.00	0.00	0.00
	CHANNELS 6 Xposition Yposition Zposition Zrotation Xrotation Yrotation
	JOINT Spine
	{
		OFFSET	 0.00	0.01	 0.00
		CHANNELS 3 Zrotation Xrotation Yrotation
		JOINT Spine1
		{
			OFFSET	 0.00	 2.45913012437421	 0.00
			CHANNELS 3 Zrotation Xrotation Yrotation
            JOINT Neck
            {
                OFFSET	 0.00	 2.48462964506057	 0.00
                CHANNELS 3 Zrotation Xrotation Yrotation
                JOINT Head
                {
                    OFFSET	 0.00	 0.927524780924562	 0.00
                    CHANNELS 3 Zrotation Xrotation Yrotation
                    End Site 
                    {
                        OFFSET	 0.00	 1.14999962169752	 0.00
                    }
                }
            }
			JOINT LeftShoulder
			{
				OFFSET	 0.00	 2.48462964506057	 0.00
				CHANNELS 3 Zrotation Xrotation Yrotation
				JOINT LeftUpArm
				{
					OFFSET	 0.00	 1.24881979654096	 0.00
					CHANNELS 3 Zrotation Xrotation Yrotation
					JOINT LeftForeArm
					{
						OFFSET	 0.00	2.59758046908119	 0.00
						CHANNELS 3 Zrotation Xrotation Yrotation
						JOINT LeftHand
						{
							OFFSET	 0.00	2.45542024364365	 0.00
							CHANNELS 3 Zrotation Xrotation Yrotation
							JOINT LeftHandThumb 
							{
								OFFSET	 0.00	0.00	 0.00
								CHANNELS 3 Zrotation Xrotation Yrotation
								End Site
								{
									OFFSET	 0.00	0.00	1.00000003353624
								}
							}
							JOINT L_Wrist_End 
							{
								OFFSET	 0.00	0.99999967115358	 0.00
								CHANNELS 3 Zrotation Xrotation Yrotation
								End Site 
								{
									OFFSET	 0.00	 0.00	 0.00
								}
							}
						}
					}
				}
			}
			JOINT RightShoulder
			{
				OFFSET	 0.00	 2.48462964506057	 0.00
				CHANNELS 3 Zrotation Xrotation Yrotation
				JOINT RightUpArm
				{
					OFFSET	 0.00	 1.24881979654096	 0.00
					CHANNELS 3 Zrotation Xrotation Yrotation
					JOINT RightForeArm
					{
						OFFSET	 0.00	2.59758046908119	 0.00
						CHANNELS 3 Zrotation Xrotation Yrotation
						JOINT RightHand
						{
							OFFSET	 0.00	2.45542024364365	 0.00
							CHANNELS 3 Zrotation Xrotation Yrotation
							JOINT RightHandThumb 
							{
								OFFSET	 0.00	0.00	 0.00
								CHANNELS 3 Zrotation Xrotation Yrotation
								End Site
								{
									OFFSET	 0.00	0.00	1.00000003353624
								}
							}
							JOINT R_Wrist_End 
							{
								OFFSET	 0.00	0.99999967115358	 0.00
								CHANNELS 3 Zrotation Xrotation Yrotation
								End Site 
								{
									OFFSET	 0.00	 0.00	 0.00
								}
							}
						}
					}
				}
			}
		}
	}
	JOINT LeftUpLeg
	{
		OFFSET	 1.2719394002717	 0.00	 0.00
		CHANNELS 3 Zrotation Xrotation Yrotation
		JOINT LeftLowLeg
		{
			OFFSET	 0.00	-4.3429100912261	 0.00
			CHANNELS 3 Zrotation Xrotation Yrotation
			JOINT LeftFoot
			{
				OFFSET	 0.00	-4.48767017425826	 0.00
				CHANNELS 3 Zrotation Xrotation Yrotation
				JOINT LeftToeBase
                {
                    OFFSET	 0.00	0.00	 1.51507020887566
                    CHANNELS 3 Zrotation Xrotation Yrotation
                    End Site 
                    {
                        OFFSET	 0.00	0.00	 0.75000010571191
                    }
                }
			}
		}
	}
	JOINT RightUpLeg
	{
		OFFSET	 -1.2719393604653	 0.00	 0.00
		CHANNELS 3 Zrotation Xrotation Yrotation
		JOINT RightLowLeg
		{
			OFFSET	 0.00	-4.3429100912261	 0.00
			CHANNELS 3 Zrotation Xrotation Yrotation
			JOINT RightFoot
			{
				OFFSET	 0.00	-4.48767017425826	 0.00
				CHANNELS 3 Zrotation Xrotation Yrotation
				JOINT RightToeBase
                {
                    OFFSET	 0.00	0.00	 1.51507020887566
                    CHANNELS 3 Zrotation Xrotation Yrotation
                    End Site 
                    {
                        OFFSET	 0.00	0.00	 0.749999965609858
                    }
                }   
			}
		}
	}
}
MOTION 
Frames:	18 
Frame Time: 0.02 
 2.89822998046875 10.7781005859375 9.825009765625 -152.91 82.9893 155.447 1.92214 -8.2624 -2.07574 -0.227551 4.49881 -2.33642 -3.8174 35.1457 7.21006 14.7694 -46.7152 12.7535 -93.47721 -13.9834 -4.84423 -12.5955 3.92435 -26.8636 0.0 18.0205 0.0 24.2421 -6.51751 18.1835 0.0 0.0 0.0 0.0 0.0 0.0 100.8357 -10.368 0.498603 11.669 1.24721 33.5429 0.0 20.3797 0.0 -18.2333 -2.17472 -22.4986 0.0 0.0 0.0 0.0 0.0 0.0 3.46841 -4.91807 -1.01745 0.0 7.47928 0.0 9.59824 6.8714 -2.08675 0.0 -37.9019 0.0 3.49187 -2.89558 6.42771 0.0 7.16335 0.0 9.12528 8.63765 -7.22489 0.0 -27.4443 0.0 
  2.8986199951171874 10.778499755859375 9.824810180664063 -152.933 82.9831 155.479 1.92388 -8.26919 -2.07657 -0.230674 4.52486 -2.33763 -3.8326 35.1454 7.23459 14.7543 -46.6831 12.7439 -93.49571 -13.9866 -4.84244 -12.5715 3.93351 -26.7285 0.0 18.0211 0.0 24.2247 -6.46869 18.2589 0.0 0.0 0.0 0.0 0.0 0.0 100.8429 -10.356 0.483913 11.6795 1.2575 33.5843 0.0 20.3756 0.0 -18.2643 -2.18093 -22.4136 0.0 0.0 0.0 0.0 0.0 0.0 3.46534 -4.92631 -1.00311 0.0 7.4702 0.0 9.44027 6.9179 -2.19058 0.0 -38.043198 0.0 3.48914 -2.90574 6.39653 0.0 7.16868 0.0 9.12385 8.63401 -7.21032 0.0 -27.451 0.0 
  2.8987200927734373 10.778599853515624 9.824769897460937 -152.916 82.9808 155.461 1.92392 -8.2691 -2.0699 -0.222011 4.5413 -2.33076 -3.85671 35.1361 7.25824 14.7483 -46.6773 12.7124 -93.49983 -13.9655 -4.83228 -12.5828 3.91127 -26.6997 0.0 18.0571 0.0 24.1766 -6.49324 18.3034 0.0 0.0 0.0 0.0 0.0 0.0 100.8398 -10.3803 0.476884 11.6921 1.29467 33.6161 0.0 20.3666 0.0 -18.2319 -2.17713 -22.5735 0.0 0.0 0.0 0.0 0.0 0.0 3.468 -4.92952 -0.993575 0.0 7.47198 0.0 9.44026 6.91387 -2.19822 0.0 -38.052498 0.0 3.4928 -2.90445 6.43456 0.0 7.16256 0.0 9.12905 8.63405 -7.24283 0.0 -27.451 0.0 
  2.8992098999023437 10.779100341796875 9.824660034179688 -152.901 82.9896 155.445 1.92047 -8.25467 -2.05632 -0.224479 4.56963 -2.31623 -3.84373 35.1491 7.24589 14.7404 -46.6673 12.7298 -93.52079 -13.9421 -4.81671 -12.5934 3.89034 -26.7981 0.0 18.1336 0.0 24.1776 -6.55551 18.1954 0.0 0.0 0.0 0.0 0.0 0.0 100.8683 -10.3803 0.504915 11.705 1.30144 33.6265 0.0 20.3565 0.0 -18.2047 -2.16738 -22.5305 0.0 0.0 0.0 0.0 0.0 0.0 3.46127 -4.94061 -0.994974 0.0 7.50823 0.0 9.44903 6.90209 -2.18924 0.0 -38.0437 0.0 3.48804 -2.90139 6.44185 0.0 7.1696 0.0 9.14574 8.624479 -7.24218 0.0 -27.4611 0.0 
  2.899289855957031 10.779100341796875 9.824609985351563 -152.869 82.9959 155.412 1.92075 -8.24895 -2.05526 -0.229431 4.58448 -2.31526 -3.83129 35.1436 7.23458 14.7403 -46.6614 12.7397 -93.53132 -13.9461 -4.82147 -12.5865 3.88734 -26.8355 0.0 18.1435 0.0 24.1729 -6.58337 18.1922 0.0 0.0 0.0 0.0 0.0 0.0 100.8851 -10.3711 0.517063 11.6971 1.29821 33.5615 0.0 20.3545 0.0 -18.1554 -2.13726 -22.6028 0.0 0.0 0.0 0.0 0.0 0.0 3.45937 -4.93668 -1.01822 0.0 7.51519 0.0 9.44685 6.90071 -2.16327 0.0 -38.0429 0.0 3.48824 -2.89329 6.44167 0.0 7.16849 0.0 9.15199 8.62064 -7.23812 0.0 -27.4427 0.0 
  2.8995700073242188 10.779599609375 9.824569702148438 -152.836 83.0141 155.383 1.87166 -8.22761 -2.08502 -0.152865 4.61291 -2.33387 -3.89617 35.1144 7.31771 14.7229 -46.6558 12.7093 -93.58285 -14.0012 -4.85514 -12.5823 3.89829 -26.7596 0.0 18.1316 0.0 24.1882 -6.53653 18.2363 0.0 0.0 0.0 0.0 0.0 0.0 100.8587 -10.3168 0.523635 11.7059 1.30037 33.5301 0.0 20.3254 0.0 -18.1591 -2.14757 -22.4513 0.0 0.0 0.0 0.0 0.0 0.0 3.45025 -4.93789 -1.06049 0.0 7.54901 0.0 9.4381 6.89678 -2.1269 0.0 -38.0334 0.0 3.48279 -2.88476 6.45595 0.0 7.18492 0.0 9.15666 8.606831 -7.24591 0.0 -27.4429 0.0 
  2.9002801513671876 10.7793994140625 9.824450073242188 -152.806 83.0382 155.366 1.88186 -8.19338 -2.05624 -0.203666 4.62765 -2.30748 -3.81068 35.089 7.22321 14.7481 -46.6401 12.7441 -93.54625 -13.9424 -4.82726 -12.5882 3.8669 -26.6782 0.0 18.1143 0.0 24.1925 -6.51366 18.1675 0.0 0.0 0.0 0.0 0.0 0.0 100.9097 -10.3492 0.496021 11.725 1.28233 33.5448 0.0 20.3471 0.0 -18.13 -2.22834 -22.3635 0.0 0.0 0.0 0.0 0.0 0.0 3.43173 -4.9352 -1.12456 0.0 7.58592 0.0 9.44288 6.8953695 -2.06503 0.0 -38.044502 0.0 3.46896 -2.85874 6.4497 0.0 7.18138 0.0 9.1723 8.60556 -7.24383 0.0 -27.4626 0.0 
  2.9007998657226564 10.7793994140625 9.824400024414063 -152.708 83.0584 155.269 1.87807 -8.16846 -2.05123 -0.199931 4.64649 -2.30154 -3.79662 35.0608 7.21334 14.759 -46.6313 12.7462 -93.56213 -13.9514 -4.83599 -12.5894 3.8776 -26.7344 0.0 18.1182 0.0 24.1954 -6.4778 18.202 0.0 0.0 0.0 0.0 0.0 0.0 100.9346 -10.3453 0.498608 11.7143 1.2773 33.5496 0.0 20.3352 0.0 -18.1215 -2.18894 -22.3755 0.0 0.0 0.0 0.0 0.0 0.0 3.42709 -4.92307 -1.15936 0.0 7.61157 0.0 9.4467 6.88667 -2.02664 0.0 -38.0318 0.0 3.46807 -2.84155 6.45373 0.0 7.19529 0.0 9.18052 8.599791 -7.24177 0.0 -27.4634 0.0 
  2.9020001220703127 10.779200439453126 9.824240112304688 -152.595 83.09 155.156 1.86634 -8.13366 -2.0408 -0.193756 4.67418 -2.28836 -3.73067 35.0421 7.14089 14.7545 -46.6236 12.7924 -93.59055 -13.9537 -4.85091 -12.5987 3.89126 -26.7864 0.0 18.1305 0.0 24.2581 -6.4172 18.2108 0.0 0.0 0.0 0.0 0.0 0.0 100.957504 -10.3492 0.530224 11.7356 1.26904 33.5633 0.0 20.3415 0.0 -18.2127 -2.20236 -22.3833 0.0 0.0 0.0 0.0 0.0 0.0 3.41322 -4.90685 -1.19091 0.0 7.65164 0.0 9.47635 6.87337 -1.9736 0.0 -38.0431 0.0 3.46029 -2.81009 6.45128 0.0 7.20395 0.0 9.19357 8.58869 -7.23881 0.0 -27.4624 0.0 
  2.9025799560546877 10.779100341796875 9.824130249023437 -152.546 83.1023 155.11 1.8625 -8.11932 -2.04386 -0.194665 4.68709 -2.29064 -3.72554 35.0193 7.14919 14.7689 -46.6095 12.8028 -93.59644 -13.9751 -4.86333 -12.5976 3.89895 -26.7145 0.0 18.1416 0.0 24.2437 -6.3989 18.3088 0.0 0.0 0.0 0.0 0.0 0.0 100.9691 -10.332 0.540359 11.7412 1.25188 33.5353 0.0 20.3546 0.0 -18.2282 -2.23544 -22.3434 0.0 0.0 0.0 0.0 0.0 0.0 3.40666 -4.89878 -1.22286 0.0 7.66204 0.0 9.47205 6.87228 -1.94405 0.0 -38.034203 0.0 3.45611 -2.79553 6.43772 0.0 7.20512 0.0 9.1823 8.581881 -7.23045 0.0 -27.437199 0.0 
  2.9042498779296877 10.778900146484375 9.82385986328125 -152.52 83.116 155.076 1.84777 -8.10674 -2.03282 -0.192458 4.72392 -2.27621 -3.67104 34.9891 7.10456 14.8068 -46.5882 12.8356 -93.62411 -13.9712 -4.86592 -12.5514 3.89477 -26.4476 0.0 18.1417 0.0 24.1785 -6.34931 18.2845 0.0 0.0 0.0 0.0 0.0 0.0 100.9972 -10.3481 0.536493 11.7536 1.29023 33.5591 0.0 20.3263 0.0 -18.1265 -2.1648 -22.527 0.0 0.0 0.0 0.0 0.0 0.0 3.38605 -4.9029 -1.30933 0.0 7.70442 0.0 9.47106 6.86969 -1.851 0.0 -38.0375 0.0 3.44372 -2.78795 6.48032 0.0 7.2209 0.0 9.21545 8.56311 -7.2461 0.0 -27.449501 0.0 
  2.905830078125 10.778599853515624 9.82375 -152.479 83.134 155.031 1.8106 -8.10549 -2.04616 -0.144305 4.78836 -2.28117 -3.65105 34.9507 7.08871 14.802 -46.5637 12.8384 -93.65895 -13.9831 -4.84639 -12.5694 3.88807 -26.4428 0.0 18.1883 0.0 24.1338 -6.3494 18.2612 0.0 0.0 0.0 0.0 0.0 0.0 100.9802 -10.3071 0.535155 11.7841 1.28084 33.5085 0.0 20.3289 0.0 -18.0738 -2.17892 -22.4986 0.0 0.0 0.0 0.0 0.0 0.0 3.36724 -4.89315 -1.40594 0.0 7.73287 0.0 9.48089 6.8653803 -1.75876 0.0 -37.9781 0.0 3.4324 -2.77182 6.50651 0.0 7.23086 0.0 9.2424 8.548309 -7.25645 0.0 -27.4545 0.0 
  2.9076998901367186 10.778299560546875 9.8235498046875 -152.487 83.1303 155.033 1.78372 -8.12751 -2.04255 -0.114874 4.84094 -2.27136 -3.60274 34.9581 7.03762 14.8243 -46.5514 12.8631 -93.71391 -13.9532 -4.86227 -12.5827 3.88039 -26.6644 0.0 18.2627 0.0 24.0973 -6.43617 18.1789 0.0 0.0 0.0 0.0 0.0 0.0 100.9892 -10.2698 0.520985 11.7911 1.25926 33.4589 0.0 20.3284 0.0 -18.0324 -2.17231 -22.4287 0.0 0.0 0.0 0.0 0.0 0.0 3.34984 -4.89668 -1.48623 0.0 7.74197 0.0 9.48569 6.86862 -1.67132 0.0 -37.933 0.0 3.42145 -2.77454 6.48308 0.0 7.23418 0.0 9.24516 8.53755 -7.23287 0.0 -27.422 0.0 
  2.9108599853515624 10.77780029296875 9.823389892578126 -152.467 83.1242 155.006 1.79252 -8.1373 -2.01868 -0.1505 4.87126 -2.24947 -3.49022 35.0211 6.91706 14.8857 -46.5612 12.9559 -93.74343 -13.9471 -4.8735 -12.6014 3.87773 -26.6776 0.0 18.4734 0.0 24.0832 -6.45878 18.121 0.0 0.0 0.0 0.0 0.0 0.0 101.0464 -10.2651 0.461309 11.8012 1.2681 33.5222 0.0 20.338 0.0 -18.0411 -2.13603 -22.4802 0.0 0.0 0.0 0.0 0.0 0.0 3.33105 -4.90865 -1.52775 0.0 7.76991 0.0 9.49016 6.85666 -1.61811 0.0 -37.9312 0.0 3.40732 -2.78108 6.48691 0.0 7.24505 0.0 9.24082 8.53849 -7.22919 0.0 -27.4396 0.0 
  2.9137799072265627 10.7772998046875 9.823419799804688 -152.477 83.1174 155.01 1.78836 -8.15503 -2.00786 -0.161094 4.90348 -2.23766 -3.45321 35.0817 6.88457 14.9314 -46.5722 13.0066 -93.81425 -13.9484 -4.89051 -12.5549 3.88144 -26.4535 0.0 18.6299 0.0 24.121 -6.34914 17.9667 0.0 0.0 0.0 0.0 0.0 0.0 101.088 -10.2473 0.46739 11.8237 1.26607 33.5038 0.0 20.3656 0.0 -18.09 -2.08005 -22.3533 0.0 0.0 0.0 0.0 0.0 0.0 3.31202 -4.92512 -1.54782 0.0 7.80111 0.0 9.50719 6.8505 -1.58642 0.0 -37.942398 0.0 3.39469 -2.79156 6.50229 0.0 7.26024 0.0 9.25901 8.528191 -7.24038 0.0 -27.432201 0.0 
  2.916889953613281 10.7768994140625 9.823280029296875 -152.517 83.1084 155.056 1.75755 -8.18096 -2.02007 -0.133773 4.9487 -2.24297 -3.41004 35.1194 6.83501 14.9297 -46.5327 13.0202 -93.90556 -13.8116 -4.79107 -12.4933 3.6708 -26.3875 0.0 18.9348 0.0 24.1349 -6.36114 18.0328 0.0 0.0 0.0 0.0 0.0 0.0 101.1069 -10.1827 0.496863 11.8586 1.21117 33.4169 0.0 20.451 0.0 -17.9975 -2.04612 -22.4468 0.0 0.0 0.0 0.0 0.0 0.0 3.28712 -4.94881 -1.60155 0.0 7.83304 0.0 9.7113 6.7933598 -1.43988 0.0 -37.793198 0.0 3.37828 -2.8053 6.50795 0.0 7.27613 0.0 9.26908 8.5152 -7.25616 0.0 -27.4555 0.0 
  2.920379943847656 10.776199951171876 9.823159790039062 -152.512 83.1158 155.058 1.76045 -8.19125 -2.00732 -0.17792 4.98861 -2.2311 -3.30567 35.1815 6.70372 14.9702 -46.5276 13.0591 -93.98895 -13.7733 -4.77433 -12.4272 3.6465 -26.3018 0.0 19.181 0.0 24.1764 -6.209 18.0778 0.0 0.0 0.0 0.0 0.0 0.0 101.1587 -10.1679 0.50989 11.9033 1.18175 33.2771 0.0 20.5419 0.0 -17.9513 -2.13226 -22.3471 0.0 0.0 0.0 0.0 0.0 0.0 3.25801 -4.94598 -1.65547 0.0 7.84901 0.0 9.74554 6.79741 -1.38558 0.0 -37.7985 0.0 3.3564 -2.79419 6.47834 0.0 7.27958 0.0 9.27491 8.508039 -7.2457 0.0 -27.4612 0.0 
  2.9240899658203126 10.77550048828125 9.822960205078125 -152.533 83.1188 155.079 1.68446 -8.23445 -2.05681 -0.0732959 5.08967 -2.26347 -3.40662 35.1958 6.82408 14.9898 -46.5284 12.9885 -94.1231 -13.7647 -4.7923 -12.4173 3.52157 -26.2506 0.0 19.5572 0.0 24.2321 -6.21666 17.956 0.0 0.0 0.0 0.0 0.0 0.0 101.1449 -10.0677 0.446557 11.9354 1.19218 33.2295 0.0 20.6294 0.0 -17.8595 -2.07812 -22.3745 0.0 0.0 0.0 0.0 0.0 0.0 3.226 -4.93488 -1.72475 0.0 7.83975 0.0 9.75765 6.80744 -1.31915 0.0 -37.7771 0.0 3.33094 -2.79176 6.48837 0.0 7.28819 0.0 9.29095 8.49448 -7.25124 0.0 -27.464401 0.0 
